<svg width="128" height="128" viewBox="0 0 128 128" fill="none" xmlns="http://www.w3.org/2000/svg">
  <defs>
    <linearGradient id="bg" x1="12" y1="10" x2="116" y2="118" gradientUnits="userSpaceOnUse">
      <stop stop-color="#0F172A"/>
      <stop offset="0.55" stop-color="#155E75"/>
      <stop offset="1" stop-color="#0EA5A5"/>
    </linearGradient>
    <linearGradient id="panel" x1="26" y1="24" x2="98" y2="86" gradientUnits="userSpaceOnUse">
      <stop stop-color="#F8FAFC"/>
      <stop offset="1" stop-color="#E2E8F0"/>
    </linearGradient>
    <linearGradient id="accent" x1="38" y1="46" x2="85" y2="74" gradientUnits="userSpaceOnUse">
      <stop stop-color="#22D3EE"/>
      <stop offset="1" stop-color="#F97316"/>
    </linearGradient>
  </defs>

  <rect x="8" y="8" width="112" height="112" rx="28" fill="url(#bg)"/>
  <path d="M102 18C95 28 94 39 98 50C102 61 111 66 118 68V20C113 18.5 108 17.8 102 18Z" fill="#FB923C" fill-opacity="0.16"/>
  <path d="M12 90C23 82 34 80 45 84C55 88 62 97 65 116H18C14 110 12 101 12 90Z" fill="#38BDF8" fill-opacity="0.12"/>

  <rect x="24" y="24" width="80" height="60" rx="16" fill="url(#panel)"/>
  <rect x="24" y="24" width="80" height="16" rx="16" fill="#CBD5E1"/>
  <path d="M24 40H104" stroke="#94A3B8" stroke-width="1.5"/>
  <circle cx="36" cy="32" r="3.2" fill="#F97316"/>
  <circle cx="46" cy="32" r="3.2" fill="#FACC15"/>
  <circle cx="56" cy="32" r="3.2" fill="#22C55E"/>

  <path d="M50 50L40 62L50 74" stroke="url(#accent)" stroke-width="7" stroke-linecap="round" stroke-linejoin="round"/>
  <path d="M78 50L88 62L78 74" stroke="url(#accent)" stroke-width="7" stroke-linecap="round" stroke-linejoin="round"/>
  <path d="M70 48L58 76" stroke="#334155" stroke-width="6" stroke-linecap="round"/>

  <rect x="30" y="92" width="44" height="10" rx="5" fill="#E2E8F0" fill-opacity="0.75"/>
  <rect x="30" y="108" width="32" height="8" rx="4" fill="#BAE6FD" fill-opacity="0.55"/>

  <circle cx="91" cy="93" r="17" fill="#22C55E"/>
  <path d="M83.5 93L89 98.5L99 88.5" stroke="white" stroke-width="6" stroke-linecap="round" stroke-linejoin="round"/>
</svg>

