<svg xmlns="http://www.w3.org/2000/svg" width="1440" height="860" viewBox="0 0 1440 860">
  <defs>
    <filter id="shadow" x="-10%" y="-10%" width="120%" height="120%">
      <feDropShadow dx="0" dy="18" stdDeviation="18" flood-color="#0f172a" flood-opacity="0.18"/>
    </filter>
    <linearGradient id="top" x1="0" y1="0" x2="1" y2="0">
      <stop offset="0" stop-color="#f8fafc"/>
      <stop offset="1" stop-color="#eef2f7"/>
    </linearGradient>
    <style>
      text { font-family: -apple-system, BlinkMacSystemFont, "Segoe UI", sans-serif; fill: #1f2937; }
      .mono { font-family: "SFMono-Regular", Consolas, "Liberation Mono", monospace; }
      .muted { fill: #6b7280; }
      .blue { fill: #0b66c3; }
      .green { fill: #15803d; }
      .red { fill: #d1242f; }
      .line { stroke: #e5e7eb; stroke-width: 1; }
      .soft { fill: #f8fafc; }
    </style>
  </defs>

  <rect width="1440" height="860" fill="#f3f4f6"/>
  <g filter="url(#shadow)">
    <rect x="42" y="42" width="1356" height="776" rx="14" fill="#ffffff"/>
    <rect x="42" y="42" width="1356" height="48" rx="14" fill="url(#top)"/>
    <circle cx="72" cy="66" r="7" fill="#ff5f57"/>
    <circle cx="94" cy="66" r="7" fill="#ffbd2e"/>
    <circle cx="116" cy="66" r="7" fill="#28c840"/>
    <text x="690" y="72" font-size="17" text-anchor="middle" class="muted">LeetCode problem in VS Code</text>
  </g>

  <rect x="42" y="90" width="56" height="728" fill="#f8fafc"/>
  <text x="70" y="136" font-size="28" text-anchor="middle" class="muted">LC</text>
  <circle cx="70" cy="136" r="24" fill="none" stroke="#0b66c3" stroke-width="3"/>
  <text x="70" y="214" font-size="31" text-anchor="middle" class="muted">?</text>
  <text x="70" y="290" font-size="30" text-anchor="middle" class="muted">{}</text>
  <text x="70" y="366" font-size="30" text-anchor="middle" class="muted">Git</text>

  <rect x="98" y="90" width="412" height="728" fill="#ffffff"/>
  <rect x="98" y="90" width="412" height="44" fill="#f8fafc"/>
  <text x="124" y="119" font-size="18" class="muted">Description</text>
  <line x1="510" y1="90" x2="510" y2="818" class="line"/>

  <text x="142" y="172" font-size="31" font-weight="700" class="blue">Count Number of Nice</text>
  <text x="142" y="210" font-size="31" font-weight="700" class="blue">Subarrays</text>
  <line x1="142" y1="238" x2="464" y2="238" stroke="#d1d5db"/>
  <text x="142" y="282" font-size="17" font-weight="700">Category</text>
  <text x="256" y="282" font-size="17" font-weight="700">Difficulty</text>
  <text x="384" y="282" font-size="17" font-weight="700">Likes</text>
  <line x1="142" y1="302" x2="446" y2="302" stroke="#111827" stroke-width="2"/>
  <text x="142" y="334" font-size="17">algorithms</text>
  <text x="256" y="334" font-size="17">Medium</text>
  <text x="384" y="334" font-size="17">5449</text>
  <text x="142" y="396" font-size="18" font-weight="700">Example 1:</text>
  <rect x="142" y="422" width="320" height="118" rx="6" fill="#f9fafb" stroke="#e5e7eb"/>
  <text x="162" y="458" font-size="18" class="mono" font-weight="700">Input:</text>
  <text x="236" y="458" font-size="18" class="mono">nums = [1,1,2,1,1]</text>
  <text x="236" y="486" font-size="18" class="mono">k = 3</text>
  <text x="162" y="516" font-size="18" class="mono" font-weight="700">Output:</text>
  <text x="250" y="516" font-size="18" class="mono">2</text>
  <text x="142" y="596" font-size="18" font-weight="700">Example 2:</text>
  <rect x="142" y="622" width="320" height="88" rx="6" fill="#f9fafb" stroke="#e5e7eb"/>
  <text x="162" y="658" font-size="18" class="mono" font-weight="700">Input:</text>
  <text x="236" y="658" font-size="18" class="mono">nums = [2,4,6], k = 1</text>
  <text x="162" y="690" font-size="18" class="mono" font-weight="700">Output:</text>
  <text x="250" y="690" font-size="18" class="mono">0</text>

  <rect x="510" y="90" width="888" height="728" fill="#ffffff"/>
  <rect x="510" y="90" width="888" height="44" fill="#f8fafc"/>
  <text x="538" y="119" font-size="18" class="red">J 1248.count-number-of-nice-subarrays.java</text>
  <line x1="510" y1="134" x2="1398" y2="134" class="line"/>
  <text x="1164" y="119" font-size="16" class="muted">Run Java</text>
  <rect x="1242" y="101" width="116" height="28" rx="14" fill="#0b66c3"/>
  <text x="1300" y="120" font-size="15" text-anchor="middle" fill="#ffffff">Debug in VS Code</text>
  <path d="M1230 101 l16 14 l-16 14 z" fill="#0b66c3"/>

  <rect x="532" y="156" width="820" height="626" fill="#ffffff"/>
  <g class="mono" font-size="18">
    <text x="548" y="184" class="muted">1</text><text x="588" y="184" class="green">/*</text>
    <text x="548" y="222" class="muted">2</text><text x="588" y="222" class="green"> * @lc app=leetcode id=1248 lang=java</text>
    <text x="548" y="260" class="muted">3</text><text x="588" y="260" class="green"> *</text>
    <text x="548" y="298" class="muted">4</text><text x="588" y="298" class="green"> * [1248] Count Number of Nice Subarrays</text>
    <text x="548" y="336" class="muted">5</text><text x="588" y="336" class="green"> */</text>
    <text x="548" y="394" class="muted">7</text><text x="588" y="394" class="green">// @lc code=start</text>
    <text x="548" y="432" class="muted">8</text><text x="588" y="432" fill="#0000ff">class</text><text x="648" y="432"> Solution {</text>
    <circle cx="570" cy="470" r="9" fill="#d1242f"/>
    <text x="548" y="476" class="muted">9</text><text x="628" y="476" fill="#0000ff">public</text><text x="706" y="476"> int numberOfSubarrays(int[] nums, int k) {</text>
    <text x="548" y="514" class="muted">10</text><text x="688" y="514" class="muted">// Set a breakpoint, then click Debug.</text>
    <text x="548" y="552" class="muted">11</text><text x="628" y="552">}</text>
    <text x="548" y="590" class="muted">12</text><text x="588" y="590">}</text>
    <text x="588" y="646" class="muted">Submit | Test | </text><text x="742" y="646" class="blue" font-weight="700">Debug</text><text x="806" y="646" class="muted"> | GitHub</text>
    <text x="548" y="692" class="muted">13</text><text x="588" y="692" class="green">// @lc code=end</text>
  </g>

  <rect x="900" y="510" width="360" height="118" rx="8" fill="#eff6ff" stroke="#60a5fa" stroke-width="2"/>
  <text x="924" y="548" font-size="19" font-weight="700" class="blue">Editor title action</text>
  <text x="924" y="580" font-size="17">Java files get a real VS Code</text>
  <text x="924" y="606" font-size="17">debug session with breakpoints.</text>
  <path d="M1090 510 C1128 450 1198 380 1268 130" fill="none" stroke="#0b66c3" stroke-width="4" stroke-linecap="round"/>
</svg>
